<svg xmlns="http://www.w3.org/2000/svg" xmlns:xlink="http://www.w3.org/1999/xlink" preserveAspectRatio="xMidYMid meet" version="1.0" viewBox="-2.2 -2.8 491.7 471.2" zoomAndPan="magnify" style="fill: rgb(224, 250, 6);" original_string_length="2701"><g id="__id7_so5p9hsogo"><path d="M243.3452301,468.4463806c-5.0722656,0-10.1425781-1.3037109-14.6914062-3.9189453 c-56.6347656-32.5585938-105.0839767-73.7763672-144.0024414-122.5087891 C58.6738472,309.4903259-2.1596487,233.3164978,0.0591013,138.924408 c0.7446289-31.6694336,8.6635742-59.6972656,22.9018555-81.0537109c6.2192383-9.3286133,25.1450195-37.715332,63.3774452-51.1264648 c27.0664062-9.4946289,51.0663986-6.6899414,60.1303635-5.0444336c31.9248047,5.800293,51.4560547,24.0317383,67.1494141,38.6806641 l0.387207,0.3613281c11.4077148,10.6474609,21.4301758,22.6674805,29.8701172,35.8134766 c8.4018555-13.1430664,18.3950348-25.1625977,29.7827301-35.809082l0.3769531-0.3525391 c15.6650391-14.6484375,35.1601562-32.8789062,67.1630859-38.6938477 c9.0615234-1.6459961,33.0634766-4.4506836,60.1308594,5.0444336c38.234375,13.4121084,57.1582031,41.7983398,63.3769531,51.1264648 c9.9775391,14.9648438,22.0498047,41.1831055,22.9023438,81.0698242l0,0 c1.9580078,91.6054688-58.5351562,166.5068359-87.6064453,202.5029297 c-38.7451172,47.9726562-86.2685547,89.2490234-141.2519531,122.6826172 C254.0175934,467.0030212,248.6806793,468.4463806,243.3452301,468.4463806z M126.4277573,14.9844675 c-9.684082,0-21.9746094,1.3012686-35.1245117,5.9140615c-33.4990273,11.7509766-50.3305702,36.996582-55.8618202,45.2929688 c-12.659668,18.9882812-19.7089844,44.2612305-20.3862305,73.0854492 c-2.0908203,88.9399414,56.357914,162.128418,81.3168945,193.3803711 c37.7397385,47.2568359,84.7607346,87.2490234,139.7573242,118.8662109 c4.5893555,2.6386719,10.2700195,2.5556641,14.8276367-0.2138672 c53.5009918-32.5332031,99.7207184-72.6669922,137.3730621-119.2880859 c27.9560547-34.6142578,86.1230469-106.6357422,84.2822266-192.7607422l0,0 c-0.7744141-36.2817383-11.5136719-59.7612305-20.3867188-73.0693359 c-5.5302734-8.2963867-22.3603516-33.5410156-55.8613281-45.2929688 c-23.6865234-8.3095694-44.5957031-5.8730459-52.484375-4.4399414 c-27.6621094,5.0258789-44.6289062,20.8920898-59.5996094,34.8911133l-0.3779297,0.3535156 c-12.2880859,11.4887695-22.8125,24.7172852-31.2793121,39.3183594c-1.8017578,3.1040039-5.1455078,5.0332031-8.7285156,5.0366211 c-0.0029297,0-0.0063477,0-0.0092773,0c-3.5791016,0-6.921875-1.921875-8.7265625-5.0170898 c-8.5141602-14.6074219-19.074707-27.8408203-31.3881836-39.3334961l-0.3876953-0.3618164 c-15.0014648-14.003418-32.0043945-29.875-59.5957031-34.887207 C140.277359,15.8208933,134.1894684,14.9844675,126.4277573,14.9844675z" style="fill: inherit;"/></g></svg>